# xmcd
#
# Track frame offsets: 
#        150
#        13920
#        29190
#        47642
#
# Disc length: 902 seconds
#
# Revision: 2
# Processed by: cddbd v1.5.2PL0 Copyright (c) Steve Scherf et al.
# Submitted via: ExactAudioCopyFreeDBPlugin 1.0
#
DISCID=32038404
DTITLE=IDEMITSU - Sony Music Entertainment Demonstration CD
DYEAR=1900
DGENRE=Pop
TTITLE0=Mydo Card Imformation
TTITLE1=mydo Boys - Mydosalsa
TTITLE2=山口百惠 - 夢先案内人
TTITLE3=松田圣子 - Sweet Memories(New Version)
EXTD=
EXTT0=
EXTT1=
EXTT2=
EXTT3=
PLAYORDER=
